<?xml version="1.0" encoding="UTF-8"?>
<svg version="1.1" xmlns="http://www.w3.org/2000/svg" width="225" height="225">
<path d="M0 0 C74.25 0 148.5 0 225 0 C225 74.25 225 148.5 225 225 C150.75 225 76.5 225 0 225 C0 150.75 0 76.5 0 0 Z " fill="#FEFEFE" transform="translate(0,0)"/>
<path d="M0 0 C6.84095525 5.93686424 10.75485266 11.94031223 11.58346558 21.037323 C11.68761453 24.45372666 11.70126894 27.85941219 11.68359375 31.27734375 C11.7009729 33.84570448 11.71855731 36.41406383 11.73632812 38.98242188 C11.74639636 42.9957171 11.74999854 47.00891439 11.74829102 51.0222168 C11.75187422 54.92002509 11.77926096 58.81715662 11.80859375 62.71484375 C11.80041122 63.90367661 11.7922287 65.09250946 11.78379822 66.31736755 C11.859616 74.86499501 13.12040294 82.07237867 18.5625 88.875 C20.3125 91.0625 20.3125 91.0625 20.8125 93.31640625 C20.03797298 97.57025388 17.25033431 99.45019473 14.0625 102.1875 C13.47597656 102.71214844 12.88945312 103.23679687 12.28515625 103.77734375 C4.12995655 111.01622887 4.12995655 111.01622887 0 111.25 C-5.18682012 109.5796681 -7.62939539 106.45955852 -10.6875 102.0625 C-12.125 99.0625 -12.125 99.0625 -12.6875 97.0625 C-13.14898437 97.49820313 -13.61046875 97.93390625 -14.0859375 98.3828125 C-25.88096815 109.15218831 -36.08911409 112.61986191 -51.9921875 112.37890625 C-58.89127905 111.78818065 -66.14414262 109.63813518 -71.34375 104.81640625 C-79.38796185 94.31683904 -80.38157732 83.73256596 -79.6875 71.0625 C-79.06865616 67.88544341 -78.21290323 66.00810624 -76.6875 63.0625 C-76.3471875 62.40121094 -76.006875 61.73992187 -75.65625 61.05859375 C-70.7658035 52.35161636 -63.00280838 46.46931319 -53.6875 43.0625 C-48.72524894 41.8014659 -43.73577559 40.90387926 -38.6875 40.0625 C-37.594375 39.85625 -36.50125 39.65 -35.375 39.4375 C-29.37937934 38.33626355 -23.78144117 37.85936863 -17.6875 38.0625 C-17.57765787 27.1316574 -17.57765787 27.1316574 -22.6875 18.0625 C-26.3439425 14.92840643 -29.67763117 14.53210525 -34.34375 14.71875 C-38.95014721 15.39435492 -43.05074323 16.95667269 -45.96875 20.7109375 C-46.96796728 22.44442808 -47.83096087 24.25425072 -48.6875 26.0625 C-49.67475401 27.73674828 -50.67248871 29.40493255 -51.6875 31.0625 C-55.31308736 30.75658272 -58.93783575 30.44165282 -62.5625 30.125 C-63.59503906 30.03798828 -64.62757812 29.95097656 -65.69140625 29.86132812 C-66.67753906 29.77431641 -67.66367188 29.68730469 -68.6796875 29.59765625 C-69.59089355 29.519104 -70.50209961 29.44055176 -71.44091797 29.35961914 C-73.6875 29.0625 -73.6875 29.0625 -75.6875 28.0625 C-76.31722491 19.40378251 -73.86413656 13.35702971 -68.25 6.75 C-51.81257067 -10.76018788 -19.94043536 -14.15248127 0 0 Z " fill="#050808" transform="translate(143.6875,38.9375)"/>
<path d="M0 0 C4.09623561 0.56423997 6.66449132 1.86578366 10.0625 4.1875 C37.61588538 22.22445509 69.80574787 27.67305983 101.86328125 21.22265625 C109.86913434 19.46130983 117.19132123 16.89749969 124.59716797 13.37426758 C128.40586183 11.57876874 131.81296493 10.48311943 136 10 C136.33 11.32 136.66 12.64 137 14 C119.67710421 31.21530017 95.51610328 38.33939265 71.68847656 38.38012695 C46.80675358 38.00445196 23.44611509 26.44611509 6 9 C0 2.5663467 0 2.5663467 0 0 Z " fill="#F8991E" transform="translate(38,153)"/>
<path d="M0 0 C1.75570312 0.01353516 1.75570312 0.01353516 3.546875 0.02734375 C4.43890625 0.03894531 5.3309375 0.05054687 6.25 0.0625 C6.697169 12.33480468 6.88974924 23.0094365 -1.93359375 32.50390625 C-5.99306459 35.98719413 -9.34970917 36.45421584 -14.56640625 36.30859375 C-17.68381716 35.95725764 -19.39829161 35.13753682 -21.75 33.0625 C-25.61412122 26.56246235 -25.76988602 20.44613766 -24.75 13.0625 C-22.34776718 7.32529927 -18.24201107 4.2446656 -12.6796875 1.75390625 C-8.33649282 0.19774136 -4.63810853 -0.04638109 0 0 Z " fill="#FBFBFB" transform="translate(119.75,93.9375)"/>
<path d="M0 0 C1.03125 -0.01417969 2.0625 -0.02835938 3.125 -0.04296875 C5.96545203 0.18473053 7.59107948 0.72245939 10 2.1875 C10.52509793 11.67815888 8.97068241 18.58844966 3 26.1875 C0.75 27.5625 0.75 27.5625 -1 28.1875 C-0.37610904 23.44592871 0.90396077 19.08538129 2.37890625 14.5546875 C3.16919076 11.95054503 3.16919076 11.95054503 3 8.1875 C0.65147472 7.01323736 -0.73774065 7.07241827 -3.3515625 7.08984375 C-4.62773437 7.09467773 -4.62773437 7.09467773 -5.9296875 7.09960938 C-6.81914062 7.10798828 -7.70859375 7.11636719 -8.625 7.125 C-9.97078125 7.13176758 -9.97078125 7.13176758 -11.34375 7.13867188 C-13.56256648 7.15047409 -15.78125018 7.16693845 -18 7.1875 C-18 6.5275 -18 5.8675 -18 5.1875 C-16.75264433 4.5365741 -15.50198168 3.89198331 -14.25 3.25 C-13.55390625 2.89035156 -12.8578125 2.53070313 -12.140625 2.16015625 C-8.05759596 0.3049113 -4.47503834 0.02796899 0 0 Z " fill="#F89B21" transform="translate(177,150.8125)"/>
</svg>
